# xmcd
#
# Track frame offsets: 
#        150
#        15206
#        29805
#        47214
#        60513
#        77753
#        101969
#        115260
#        126924
#        146890
#
# Disc length: 2161 seconds
#
# Revision: 0
# Processed by: cddbd v1.5.2PL0 Copyright (c) Steve Scherf et al.
# Submitted via: ExactAudioCopy v1.0b4
#
DISCID=8c086f0a
DTITLE=Left Lane Cruiser and James Leg - Painkillers
DYEAR=2012
DGENRE=Blues Rock
TTITLE0=Sad Days Lonely Nights
TTITLE1=She's Gone
TTITLE2=Come To Poppa
TTITLE3=Red Rooster
TTITLE4=If 6 Was 9
TTITLE5=Shake It
TTITLE6=Ramblin On My Mind
TTITLE7=Chevrolet
TTITLE8=When The Levee Breaks
TTITLE9=Sway
EXTD=
EXTT0=
EXTT1=
EXTT2=
EXTT3=
EXTT4=
EXTT5=
EXTT6=
EXTT7=
EXTT8=
EXTT9=
PLAYORDER=
